<?xml version="1.0" encoding="UTF-8" standalone="no"?>
<!-- Created with Inkscape (http://www.inkscape.org/) -->

<svg
   xmlns:dc="http://purl.org/dc/elements/1.1/"
   xmlns:cc="http://creativecommons.org/ns#"
   xmlns:rdf="http://www.w3.org/1999/02/22-rdf-syntax-ns#"
   xmlns:svg="http://www.w3.org/2000/svg"
   xmlns="http://www.w3.org/2000/svg"
   xmlns:sodipodi="http://sodipodi.sourceforge.net/DTD/sodipodi-0.dtd"
   xmlns:inkscape="http://www.inkscape.org/namespaces/inkscape"
   version="1.1"
   id="svg2"
   width="914.28571"
   height="329.14285"
   viewBox="0 0 914.28571 329.14285"
   sodipodi:docname="chaleco-blnc.svg"
   inkscape:version="0.92.3 (2405546, 2018-03-11)">
  <metadata
     id="metadata8">
    <rdf:RDF>
      <cc:Work
         rdf:about="">
        <dc:format>image/svg+xml</dc:format>
        <dc:type
           rdf:resource="http://purl.org/dc/dcmitype/StillImage" />
        <dc:title></dc:title>
      </cc:Work>
    </rdf:RDF>
  </metadata>
  <defs
     id="defs6" />
  <sodipodi:namedview
     pagecolor="#ffffff"
     bordercolor="#666666"
     borderopacity="1"
     objecttolerance="10"
     gridtolerance="10"
     guidetolerance="10"
     inkscape:pageopacity="0"
     inkscape:pageshadow="2"
     inkscape:window-width="1366"
     inkscape:window-height="712"
     id="namedview4"
     showgrid="false"
     showguides="true"
     inkscape:guide-bbox="true"
     inkscape:zoom="0.42875"
     inkscape:cx="552.01509"
     inkscape:cy="164.57143"
     inkscape:window-x="0"
     inkscape:window-y="27"
     inkscape:window-maximized="1"
     inkscape:current-layer="svg2">
    <sodipodi:guide
       position="345.1895,202.91545"
       orientation="1,0"
       id="guide4570"
       inkscape:locked="false" />
  </sodipodi:namedview>
  <path
     inkscape:connector-curvature="0"
     style="fill:#ffffff;stroke-width:0.64334428"
     d="m 139.27542,122.17062 -9.03556,-17.44369 C 121.95549,88.734125 117.64847,71.153878 117.64847,53.336827 V 5.5043707 L 66.225191,18.554085 C 56.489301,21.02483 49.718576,29.387399 49.718576,38.942112 v 52.071693 c 0,15.150225 -8.635846,29.117705 -22.579653,36.520535 v 0 C 13.195115,134.93719 4.5592699,148.90466 4.5592699,164.05489 v 142.71366 c -6.607e-4,10.75941 9.2007331,19.48156 20.5506811,19.48156 h 65.01693 c 17.385989,0 33.820579,-7.52563 44.627459,-20.43627 v 0 c 7.99299,-9.54846 12.34296,-21.3797 12.34296,-33.56929 v -118.1472 c 6.6e-4,-11.06885 -2.67512,-21.99112 -7.82188,-31.92673 z"
     data-original="#FFCC5A"
     class=""
     data-old_color="#FFCC5A"
     id="path4" />
  <g
     transform="matrix(0.66068741,0,0,0.62645651,-10.850602,5.5043707)"
     id="g12"
     style="fill:#666666">
    <polygon
       style="fill:#666666"
       points="121.657,296.425 158.111,296.425 158.111,9.737 121.657,19.494 "
       data-original="#F2F2F2"
       class=""
       id="polygon6" />
    <path
       inkscape:connector-curvature="0"
       style="fill:#666666"
       d="m 23.323,396.35 v 36.446 h 215.454 c 0.189,-2.323 0.29,-4.659 0.29,-7.004 V 396.35 Z"
       data-original="#F2F2F2"
       class=""
       id="path8" />
    <rect
       x="23.323"
       y="296.42999"
       style="fill:#666666"
       width="215.74001"
       height="36.445999"
       data-original="#F2F2F2"
       class=""
       id="rect10" />
  </g>
  <path
     inkscape:connector-curvature="0"
     style="fill:#ffffff;stroke-width:0.64334428"
     d="m 177.29402,122.17062 9.03555,-17.44369 c 8.28436,-15.992805 12.59138,-33.573052 12.59138,-51.390103 V 5.5043707 l 51.42329,13.0497143 c 9.73589,2.470745 16.50661,10.833314 16.50661,20.388027 v 52.071693 c 0,15.150225 8.63585,29.117705 22.57966,36.520535 v 0 c 13.94381,7.40285 22.57964,21.37032 22.57964,36.52055 v 142.71366 c 0,10.75941 -9.20139,19.48218 -20.55134,19.48218 h -65.01692 c -17.38599,0 -33.82059,-7.52561 -44.62745,-20.43626 v 0 c -7.993,-9.54845 -12.34296,-21.37971 -12.34296,-33.5693 V 154.09735 c 0,-11.06885 2.67579,-21.99112 7.82254,-31.92673 z"
     data-original="#FFCC5A"
     class=""
     data-old_color="#FFCC5A"
     id="path14" />
  <g
     transform="matrix(0.66068741,0,0,0.62645651,-10.850602,5.5043707)"
     id="g22"
     style="fill:#666666">
    <polyline
       style="fill:#666666"
       points="353.887,196.572 353.887,9.737 390.341,19.494 390.341,296.425 353.887,296.425    353.887,227.692  "
       data-original="#F2F2F2"
       class=""
       id="polyline16" />
    <path
       inkscape:connector-curvature="0"
       style="fill:#666666"
       d="m 488.675,396.35 v 36.446 H 273.221 c -0.189,-2.323 -0.29,-4.659 -0.29,-7.004 V 396.35 Z"
       data-original="#F2F2F2"
       class=""
       id="path18" />
    <rect
       x="272.92899"
       y="296.42999"
       style="fill:#666666"
       width="215.74001"
       height="36.445999"
       data-original="#F2F2F2"
       class=""
       id="rect20" />
  </g>
  <path
     inkscape:connector-curvature="0"
     style="fill:#cccccc;stroke-width:0.64334428"
     d="m 139.27542,122.17062 -9.03556,-17.44369 C 121.95549,88.734125 117.64847,71.153878 117.64847,53.336827 V 5.5043707 L 97.932239,10.507876 v 42.828951 c 0,17.817051 4.307681,35.397298 12.591391,51.390103 l 9.03555,17.44369 c 5.14676,9.93561 7.82254,20.85788 7.82254,31.92673 v 118.1472 c 0,12.18959 -4.34997,24.02083 -12.34296,33.56929 v 0 c -10.80752,12.91064 -27.242128,20.43627 -44.628118,20.43627 h 19.716239 c 17.385989,0 33.820579,-7.52563 44.627459,-20.43627 v 0 c 7.99299,-9.54846 12.34296,-21.3797 12.34296,-33.56929 v -118.1472 c 6.6e-4,-11.06885 -2.67512,-21.99112 -7.82188,-31.92673 z"
     data-original="#FFB000"
     class=""
     data-old_color="#FFB000"
     id="path24" />
  <g
     transform="matrix(0.66068741,0,0,0.62645651,-10.850602,5.5043707)"
     id="g30"
     style="fill:#999999">
    <path
       inkscape:connector-curvature="0"
       style="fill:#999999"
       d="m 209.224,425.792 c 0,2.345 -0.101,4.681 -0.29,7.004 h 29.842 c 0.095,-1.161 0.167,-2.325 0.216,-3.491 0.048,-1.168 0.074,-2.339 0.074,-3.512 V 396.35 h -29.842 z"
       data-original="#CCCCCC"
       class=""
       data-old_color="#CCCCCC"
       id="path26" />
    <rect
       x="209.21899"
       y="296.42999"
       style="fill:#999999"
       width="29.841999"
       height="36.445999"
       data-original="#CCCCCC"
       class=""
       data-old_color="#CCCCCC"
       id="rect28" />
  </g>
  <path
     inkscape:connector-curvature="0"
     style="fill:#cccccc;stroke-width:0.64334428"
     d="M 289.43117,127.53434 C 275.48736,120.13151 266.85152,106.16403 266.85152,91.013805 V 38.942112 c 0,-9.554087 -6.77073,-17.916656 -16.50663,-20.388027 L 198.92162,5.5043707 v 4.9978673 l 31.72818,8.051847 c 9.73589,2.470745 16.50661,10.833314 16.50661,20.388027 v 52.071693 c 0,15.150225 8.63586,29.117705 22.57967,36.520535 13.94381,7.40285 22.57964,21.37032 22.57964,36.52055 v 142.71366 c 0,10.75941 -9.20139,19.48218 -20.55134,19.48218 h 19.69509 c 11.35061,0 20.55135,-8.72214 20.55135,-19.48218 V 164.05489 c 0,-15.15023 -8.63585,-29.1177 -22.57965,-36.52055 z"
     data-original="#FFB000"
     class=""
     data-old_color="#FFB000"
     id="path32" />
  <g
     transform="matrix(0.66068741,0,0,0.62645651,-10.850602,5.5043707)"
     id="g40"
     style="fill:#999999">
    <path
       inkscape:connector-curvature="0"
       style="fill:#999999"
       d="M 390.341,19.494 353.886,9.737 v 7.978 l 11.642,3.116 c 13.65,3.653 23.442,15.378 24.813,29.207 z"
       data-original="#CCCCCC"
       class=""
       data-old_color="#CCCCCC"
       id="path34" />
    <rect
       x="458.86899"
       y="396.35001"
       style="fill:#999999"
       width="29.809999"
       height="36.445999"
       data-original="#CCCCCC"
       class=""
       data-old_color="#CCCCCC"
       id="rect36" />
    <rect
       x="458.86899"
       y="296.42999"
       style="fill:#999999"
       width="29.809999"
       height="36.445999"
       data-original="#CCCCCC"
       class=""
       data-old_color="#CCCCCC"
       id="rect38" />
  </g>
  <text
     xml:space="preserve"
     style="font-style:normal;font-variant:normal;font-weight:normal;font-stretch:normal;font-size:40px;line-height:1.25;font-family:'Open Sans';-inkscape-font-specification:'Open Sans';letter-spacing:0px;word-spacing:0px;fill:#ffffff;fill-opacity:1;stroke:none;"
     x="345.18951"
     y="141.89505"
     id="text4564"><tspan
       sodipodi:role="line"
       id="tspan4562"
       x="345.18951"
       y="141.89505"
       style="font-style:normal;font-variant:normal;font-weight:bold;font-stretch:normal;font-size:120px;font-family:'Open Sans';-inkscape-font-specification:'Open Sans Bold';fill:#ffffff;">Comisión</tspan></text>
  <text
     xml:space="preserve"
     style="font-style:normal;font-variant:normal;font-weight:normal;font-stretch:normal;font-size:40px;line-height:1.25;font-family:'Open Sans';-inkscape-font-specification:'Open Sans';letter-spacing:0px;word-spacing:0px;fill:#ffffff;fill-opacity:1;stroke:none;"
     x="347.18951"
     y="272.16324"
     id="text4568"><tspan
       sodipodi:role="line"
       id="tspan4566"
       x="347.18951"
       y="272.16324"
       style="font-size:120px;fill:#ffffff;">SH</tspan></text>
</svg>
