<?xml version="1.0"?>
<svg xmlns="http://www.w3.org/2000/svg" xmlns:xlink="http://www.w3.org/1999/xlink" version="1.1" id="Layer_1" x="0px" y="0px" viewBox="0 0 512.001 512.001" style="enable-background:new 0 0 512.001 512.001;" xml:space="preserve" width="512px" height="512px" class=""><g><path style="fill:#0E2A47" d="M454.499,194.794c-21.105-11.817-34.176-34.113-34.176-58.297V53.376  c0-15.251-10.248-28.601-24.984-32.545L317.506,0l-0.646,0.171C276.757,10.804,234.566,10.745,194.492,0l0,0l-77.833,20.831  c-14.736,3.944-24.984,17.293-24.984,32.545v83.121c0,24.184-13.071,46.48-34.176,58.297s-34.176,34.113-34.176,58.297v227.81  C23.323,498.077,37.25,512,54.429,512h98.408c0.003,0,0.006,0,0.009,0h206.306c0.003,0,0.006,0,0.009,0h98.408  c17.18,0,31.106-13.923,31.106-31.099v-227.81C488.675,228.907,475.604,206.611,454.499,194.794z M190.366,503.407  c-0.006,0.003-0.012,0.006-0.019,0.009C190.353,503.413,190.36,503.41,190.366,503.407z M192.589,502.292  c-0.03,0.016-0.06,0.033-0.09,0.048C192.529,502.324,192.558,502.307,192.589,502.292z" data-original="#F78B0B" class="active-path" data-old_color="#F78B0B"/><path style="fill:#04458F" d="M227.227,186.232l-13.676-27.845c-12.539-25.529-19.058-53.592-19.058-82.033V0L116.66,20.831  c-14.736,3.944-24.984,17.293-24.984,32.545v83.121c0,24.184-13.071,46.48-34.176,58.297l0,0  c-21.105,11.817-34.176,34.113-34.176,58.297v227.811C23.323,498.077,37.25,512,54.429,512h98.408  c26.315,0,51.19-12.013,67.547-32.622l0,0c12.098-15.242,18.682-34.128,18.682-53.586V237.196  C239.067,219.527,235.017,202.092,227.227,186.232z" data-original="#FFCC5A" class="" data-old_color="#FFCC5A"/><g>
	<polygon style="fill:#F2F2F2" points="158.111,9.737 121.657,19.494 121.657,296.425 158.111,296.425  " data-original="#F2F2F2" class=""/>
	<path style="fill:#F2F2F2" d="M23.323,396.35v36.446h215.454c0.189-2.323,0.29-4.659,0.29-7.004V396.35H23.323z" data-original="#F2F2F2" class=""/>
	<rect x="23.323" y="296.43" style="fill:#F2F2F2" width="215.74" height="36.446" data-original="#F2F2F2" class=""/>
</g><path style="fill:#04458F" d="M284.771,186.232l13.676-27.845c12.539-25.529,19.058-53.592,19.058-82.033V0l77.833,20.831  c14.736,3.944,24.984,17.293,24.984,32.545v83.121c0,24.184,13.071,46.48,34.176,58.297l0,0  c21.105,11.817,34.176,34.113,34.176,58.297v227.811c0,17.175-13.927,31.099-31.106,31.099H359.16  c-26.315,0-51.19-12.013-67.547-32.622l0,0c-12.098-15.242-18.682-34.128-18.682-53.586V237.196  C272.931,219.527,276.981,202.092,284.771,186.232z" data-original="#FFCC5A" class="" data-old_color="#FFCC5A"/><g>
	<polyline style="fill:#F2F2F2" points="353.887,196.572 353.887,9.737 390.341,19.494 390.341,296.425 353.887,296.425    353.887,227.692  " data-original="#F2F2F2" class=""/>
	<path style="fill:#F2F2F2" d="M488.675,396.35v36.446H273.221c-0.189-2.323-0.29-4.659-0.29-7.004V396.35H488.675z" data-original="#F2F2F2" class=""/>
	<rect x="272.929" y="296.43" style="fill:#F2F2F2" width="215.74" height="36.446" data-original="#F2F2F2" class=""/>
</g><path style="fill:#1273EB" d="M227.227,186.232l-13.676-27.845c-12.539-25.529-19.058-53.592-19.058-82.033V0l-29.842,7.987v68.367  c0,28.441,6.52,56.504,19.058,82.033l13.676,27.845c7.79,15.86,11.84,33.295,11.84,50.964v188.596  c0,19.458-6.584,38.344-18.682,53.586l0,0C174.185,499.987,149.31,512,122.995,512h29.842c26.315,0,51.19-12.013,67.547-32.622l0,0  c12.098-15.242,18.682-34.128,18.682-53.586V237.196C239.067,219.527,235.017,202.092,227.227,186.232z" data-original="#FFB000" class="" data-old_color="#FFB000"/><g>
	<path style="fill:#CCCCCC" d="M209.224,425.792c0,2.345-0.101,4.681-0.29,7.004h29.842c0.095-1.161,0.167-2.325,0.216-3.491   c0.048-1.168,0.074-2.339,0.074-3.512V396.35h-29.842L209.224,425.792L209.224,425.792z" data-original="#CCCCCC" class="" data-old_color="#CCCCCC"/>
	<rect x="209.219" y="296.43" style="fill:#CCCCCC" width="29.842" height="36.446" data-original="#CCCCCC" class="" data-old_color="#CCCCCC"/>
</g><path style="fill:#1273EB" d="M454.499,194.794c-21.105-11.817-34.176-34.113-34.176-58.297V53.376  c0-15.251-10.248-28.6-24.984-32.545L317.506,0v7.978l48.023,12.853c14.736,3.944,24.984,17.293,24.984,32.545v83.121  c0,24.184,13.071,46.48,34.176,58.297c21.105,11.817,34.176,34.113,34.176,58.297v227.811c0,17.175-13.927,31.099-31.106,31.099  h29.81c17.18,0,31.106-13.923,31.106-31.099V253.091C488.675,228.907,475.604,206.611,454.499,194.794z" data-original="#FFB000" class="" data-old_color="#FFB000"/><g>
	<path style="fill:#CCCCCC" d="M390.341,19.494l-36.455-9.757v7.978l11.642,3.116c13.65,3.653,23.442,15.378,24.813,29.207V19.494z   " data-original="#CCCCCC" class="" data-old_color="#CCCCCC"/>
	<rect x="458.869" y="396.35" style="fill:#CCCCCC" width="29.81" height="36.446" data-original="#CCCCCC" class="" data-old_color="#CCCCCC"/>
	<rect x="458.869" y="296.43" style="fill:#CCCCCC" width="29.81" height="36.446" data-original="#CCCCCC" class="" data-old_color="#CCCCCC"/>
</g></g> </svg>
